<?xml version="1.0" encoding="UTF-8" standalone="no"?>
<!DOCTYPE svg PUBLIC "-//W3C//DTD SVG 1.1//EN" "http://www.w3.org/Graphics/SVG/1.1/DTD/svg11.dtd">
<svg width="100%" height="100%" viewBox="0 0 175 22" version="1.1" xmlns="http://www.w3.org/2000/svg" xmlns:xlink="http://www.w3.org/1999/xlink" xml:space="preserve" xmlns:serif="http://www.serif.com/" style="fill-rule:evenodd;clip-rule:evenodd;stroke-linejoin:round;stroke-miterlimit:1.41421;">
    <g id="Warning-admotion" serif:id="Warning admotion" transform="matrix(0.216584,0,0,0.216584,-129.527,-43.7227)">
        <g id="Note-bg" serif:id="Note bg" transform="matrix(0.999654,0,0,0.495597,0.207081,101.826)">
            <g transform="matrix(1,0,0,1.01798,0,-3.63044)">
                <rect x="598.043" y="201.874" width="804.862" height="197.419" style="fill:rgb(228,126,47);fill-opacity:0.25;"/>
            </g>
            <g transform="matrix(0.0136717,0,0,1.01844,589.867,-3.72206)">
                <rect x="598.043" y="201.874" width="804.862" height="197.419" style="fill:rgb(228,126,47);"/>
            </g>
        </g>
        <g id="Body" transform="matrix(1,0,0,1,-18.4154,-23.1164)">
            <text x="646.243px" y="303.973px" style="font-family:'SFProDisplay-Medium', 'SF Pro Display';font-weight:500;font-size:25px;">M<tspan x="666.982px " y="303.973px ">a</tspan>moot!</text>
            <text x="748.11px" y="303.973px" style="font-family:'SFProDisplay-Regular', 'SF Pro Display';font-size:25px;">is curr<tspan x="810.464px " y="303.973px ">e</tspan>ntly on</text>
            <text x="897.927px" y="303.973px" style="font-family:'SFProDisplay-RegularItalic', 'SF Pro Display';font-style:italic;font-size:25px;">beta</text>
            <text x="950.759px" y="303.973px" style="font-family:'SFProDisplay-Regular', 'SF Pro Display';font-size:25px;">phase.<tspan x="1020.08px " y="303.973px "> </tspan>Expect bugs t<tspan x="1167.15px " y="303.973px ">o</tspan> happen.</text>
        </g>
        <g id="Title" transform="matrix(0.632428,0,0,0.632428,206.909,86.8787)">
            <text x="664.022px" y="240.624px" style="font-family:'FontAwesome5Free-Solid', 'Font Awesome 5 Free';font-weight:900;font-size:39.53px;fill:rgb(228,126,47);"></text>
            <text x="719.476px" y="240.624px" style="font-family:'Helvetica-Bold', 'Helvetica';font-weight:700;font-size:39.53px;fill:rgb(228,126,47);">Warning</text>
        </g>
    </g>
</svg>
