<?xml version="1.0" encoding="UTF-8" standalone="no"?>
<!DOCTYPE svg PUBLIC "-//W3C//DTD SVG 1.1//EN" "http://www.w3.org/Graphics/SVG/1.1/DTD/svg11.dtd">
<svg width="100%" height="100%" viewBox="0 0 880 151" version="1.1" xmlns="http://www.w3.org/2000/svg" xmlns:xlink="http://www.w3.org/1999/xlink" xml:space="preserve" xmlns:serif="http://www.serif.com/" style="fill-rule:evenodd;clip-rule:evenodd;stroke-linejoin:round;stroke-miterlimit:1.41421;">
    <g id="Mamoot-" serif:id="Mamoot!" transform="matrix(1,0,0,1,-628.208,-473.206)">
        <g id="Mamoot-1" serif:id="Mamoot!" transform="matrix(1,0,0,1,283.573,-232.355)">
            <g transform="matrix(0.328126,0,0,0.328126,349.843,694.992)">
                <path d="M459.37,151.716C459.695,156.264 459.695,160.813 459.695,165.361C459.695,304.081 354.112,463.919 161.137,463.919C101.685,463.919 46.457,446.7 0,416.813C8.447,417.787 16.568,418.112 25.34,418.112C74.395,418.112 119.553,401.544 155.614,373.28C109.482,372.305 70.822,342.092 57.502,300.508C64,301.482 70.497,302.132 77.32,302.132C86.741,302.132 96.163,300.832 104.934,298.559C56.853,288.812 20.791,246.579 20.791,195.574L20.791,194.275C34.76,202.072 51.005,206.945 68.222,207.594C39.958,188.751 21.441,156.589 21.441,120.203C21.441,100.711 26.638,82.843 35.735,67.249C87.39,130.924 165.035,172.507 252.1,177.056C250.476,169.259 249.501,161.138 249.501,153.016C249.501,95.188 296.283,48.082 354.435,48.082C384.648,48.082 411.937,60.752 431.105,81.219C454.82,76.671 477.561,67.899 497.704,55.879C489.906,80.245 473.338,100.712 451.572,113.706C472.689,111.433 493.156,105.584 511.998,97.463C497.706,118.254 479.837,136.771 459.37,151.716Z" style="fill-rule:nonzero;stroke:url(#_Linear1);stroke-width:31.75px;"/>
            </g>
            <g transform="matrix(0.328126,0,0,0.328126,349.843,694.992)">
                <path d="M459.37,151.716C459.695,156.264 459.695,160.813 459.695,165.361C459.695,304.081 354.112,463.919 161.137,463.919C101.685,463.919 46.457,446.7 0,416.813C8.447,417.787 16.568,418.112 25.34,418.112C74.395,418.112 119.553,401.544 155.614,373.28C109.482,372.305 70.822,342.092 57.502,300.508C64,301.482 70.497,302.132 77.32,302.132C86.741,302.132 96.163,300.832 104.934,298.559C56.853,288.812 20.791,246.579 20.791,195.574L20.791,194.275C34.76,202.072 51.005,206.945 68.222,207.594C39.958,188.751 21.441,156.589 21.441,120.203C21.441,100.711 26.638,82.843 35.735,67.249C87.39,130.924 165.035,172.507 252.1,177.056C250.476,169.259 249.501,161.138 249.501,153.016C249.501,95.188 296.283,48.082 354.435,48.082C384.648,48.082 411.937,60.752 431.105,81.219C454.82,76.671 477.561,67.899 497.704,55.879C489.906,80.245 473.338,100.712 451.572,113.706C472.689,111.433 493.156,105.584 511.998,97.463C497.706,118.254 479.837,136.771 459.37,151.716Z" style="fill:white;fill-rule:nonzero;"/>
            </g>
        </g>
        <g transform="matrix(1,0,0,1,-31.7526,3.22976)">
            <text x="867.681px" y="507.19px" style="font-family:'SFProDisplay-Bold', 'SF Pro Display';font-weight:700;font-size:50px;">M<tspan x="910.308px " y="507.19px ">a</tspan>moot!</text>
        </g>
        <g transform="matrix(1,0,0,1,-42.3226,-11.174)">
            <text x="878.854px" y="577.132px" style="font-family:'SFProDisplay-Medium', 'SF Pro Display';font-weight:500;font-size:50px;">T<tspan x="904.269px " y="577.132px ">w</tspan>itt<tspan x="983.688px " y="577.132px ">e</tspan>r and M<tspan x="1169.8px " y="577.132px ">a</tspan>st<tspan x="1235.28px " y="577.132px ">o</tspan>don client f<tspan x="1498.07px " y="577.132px ">o</tspan>r</text>
            <text x="878.854px" y="627.132px" style="font-family:'SFProDisplay-Medium', 'SF Pro Display';font-weight:500;font-size:50px;">iOS,<tspan x="967.502px " y="627.132px "> </tspan>iP<tspan x="1016.04px " y="627.132px ">a</tspan>dOS and macOS.</text>
        </g>
    </g>
    <defs>
        <linearGradient id="_Linear1" x1="0" y1="0" x2="1" y2="0" gradientUnits="userSpaceOnUse" gradientTransform="matrix(511.998,0,0,415.837,0,256)"><stop offset="0" style="stop-color:rgb(204,112,128);stop-opacity:1"/><stop offset="0.49" style="stop-color:rgb(170,119,204);stop-opacity:1"/><stop offset="1" style="stop-color:rgb(91,127,213);stop-opacity:1"/></linearGradient>
    </defs>
</svg>
